<svg width="25" height="26" viewBox="0 0 25 26" fill="none" xmlns="http://www.w3.org/2000/svg">
<circle cx="12.5" cy="13" r="12" stroke="#494D61"/>
<path d="M16.688 9.772H11.504V12.508C11.728 12.2307 12.048 12.0067 12.464 11.836C12.88 11.6547 13.3227 11.564 13.792 11.564C14.6453 11.564 15.344 11.7507 15.888 12.124C16.432 12.4973 16.8267 12.9773 17.072 13.564C17.3173 14.14 17.44 14.7587 17.44 15.42C17.44 16.6467 17.088 17.6333 16.384 18.38C15.6907 19.1267 14.6987 19.5 13.408 19.5C12.192 19.5 11.2213 19.196 10.496 18.588C9.77067 17.98 9.36 17.1853 9.264 16.204H11.44C11.536 16.6307 11.7493 16.972 12.08 17.228C12.4213 17.484 12.8533 17.612 13.376 17.612C14.0053 17.612 14.48 17.4147 14.8 17.02C15.12 16.6253 15.28 16.1027 15.28 15.452C15.28 14.7907 15.1147 14.2893 14.784 13.948C14.464 13.596 13.9893 13.42 13.36 13.42C12.912 13.42 12.5387 13.532 12.24 13.756C11.9413 13.98 11.728 14.2787 11.6 14.652H9.456V7.804H16.688V9.772Z" fill="#494D61"/>
</svg>
