<svg width="25" height="26" viewBox="0 0 25 26" fill="none" xmlns="http://www.w3.org/2000/svg">
<circle cx="12.5" cy="13" r="12" stroke="#494D61"/>
<path d="M8.88 10.908C8.93333 9.84133 9.30667 9.02 10 8.444C10.704 7.85733 11.6267 7.564 12.768 7.564C13.5467 7.564 14.2133 7.70267 14.768 7.98C15.3227 8.24667 15.7387 8.61467 16.016 9.084C16.304 9.54267 16.448 10.0653 16.448 10.652C16.448 11.324 16.272 11.8947 15.92 12.364C15.5787 12.8227 15.168 13.132 14.688 13.292V13.356C15.3067 13.548 15.7867 13.8893 16.128 14.38C16.48 14.8707 16.656 15.5 16.656 16.268C16.656 16.908 16.5067 17.4787 16.208 17.98C15.92 18.4813 15.488 18.876 14.912 19.164C14.3467 19.4413 13.664 19.58 12.864 19.58C11.6587 19.58 10.6773 19.276 9.92 18.668C9.16267 18.06 8.76267 17.164 8.72 15.98H10.896C10.9173 16.5027 11.0933 16.924 11.424 17.244C11.7653 17.5533 12.2293 17.708 12.816 17.708C13.36 17.708 13.776 17.5587 14.064 17.26C14.3627 16.9507 14.512 16.556 14.512 16.076C14.512 15.436 14.3093 14.9773 13.904 14.7C13.4987 14.4227 12.8693 14.284 12.016 14.284H11.552V12.444H12.016C13.5307 12.444 14.288 11.9373 14.288 10.924C14.288 10.4653 14.1493 10.108 13.872 9.852C13.6053 9.596 13.216 9.468 12.704 9.468C12.2027 9.468 11.8133 9.60667 11.536 9.884C11.2693 10.1507 11.1147 10.492 11.072 10.908H8.88Z" fill="#494D61"/>
</svg>
