<svg width="59" height="60" viewBox="0 0 59 60" fill="none" xmlns="http://www.w3.org/2000/svg">
<rect x="0.5" y="1" width="58" height="58" rx="9.5" fill="#3AD09A"/>
<path d="M27.5 39H31.5M36.5 39V23C36.5 22.4696 36.2893 21.9609 35.9142 21.5858C35.5391 21.2107 35.0304 21 34.5 21H24.5C23.9696 21 23.4609 21.2107 23.0858 21.5858C22.7107 21.9609 22.5 22.4696 22.5 23V39H36.5ZM36.5 39H38.5H36.5ZM36.5 39H31.5H36.5ZM22.5 39H20.5H22.5ZM22.5 39H27.5H22.5ZM26.5 25H27.5H26.5ZM26.5 29H27.5H26.5ZM31.5 25H32.5H31.5ZM31.5 29H32.5H31.5ZM27.5 39V34C27.5 33.7348 27.6054 33.4804 27.7929 33.2929C27.9804 33.1054 28.2348 33 28.5 33H30.5C30.7652 33 31.0196 33.1054 31.2071 33.2929C31.3946 33.4804 31.5 33.7348 31.5 34V39H27.5Z" stroke="white" stroke-width="2" stroke-linecap="round" stroke-linejoin="round"/>
<rect x="0.5" y="1" width="58" height="58" rx="9.5" stroke="#3AD09A"/>
</svg>
