<svg width="393" height="375" viewBox="0 0 393 375" fill="none" xmlns="http://www.w3.org/2000/svg">
<path d="M192.534 374.478H184.468V23.5557C184.468 22.4871 184.892 21.4623 185.648 20.7067C186.403 19.9511 187.428 19.5266 188.497 19.5266C189.027 19.5255 189.551 19.6289 190.041 19.8309C190.531 20.0329 190.976 20.3295 191.351 20.7037C191.726 21.0779 192.024 21.5225 192.227 22.0119C192.43 22.5012 192.534 23.0258 192.534 23.5557V374.478Z" fill="#96C9FF" stroke="#263238" stroke-linecap="round" stroke-linejoin="round"/>
<path d="M184.24 66.27H113.55V91.1622H184.24V66.27Z" fill="#263238" stroke="#263238" stroke-linecap="round" stroke-linejoin="round"/>
<path d="M263.359 39.5872H192.669V64.4793H263.359V39.5872Z" fill="#263238" stroke="#263238" stroke-linecap="round" stroke-linejoin="round"/>
<path d="M192.669 108.182L232.14 113.199V78.2727L192.669 83.29V108.182Z" fill="#263238" stroke="#263238" stroke-linecap="round" stroke-linejoin="round"/>
<path d="M224.184 96.3992L215.475 86.7954V90.9849L197.281 91.7029V100.825L215.475 101.729V105.919L224.184 96.3992Z" fill="#96C9FF" stroke="#263238" stroke-linecap="round" stroke-linejoin="round"/>
<path d="M252.581 50.2218L239.151 42.4678V45.8633H203.734V54.5802H239.151V57.9842L252.581 50.2218Z" fill="#96C9FF" stroke="#263238" stroke-linecap="round" stroke-linejoin="round"/>
<path d="M124.885 78.8978L138.316 71.1438V74.5393H173.732V83.2562H138.316V86.6518L124.885 78.8978Z" fill="#96C9FF" stroke="#96C9FF" stroke-linecap="round" stroke-linejoin="round"/>
<path d="M298.319 91.2473C314.497 91.2473 327.612 78.1324 327.612 61.9544C327.612 45.7765 314.497 32.6616 298.319 32.6616C282.141 32.6616 269.026 45.7765 269.026 61.9544C269.026 78.1324 282.141 91.2473 298.319 91.2473Z" stroke="#263238" stroke-linecap="round" stroke-linejoin="round"/>
<path d="M317.585 81.2971C315.619 83.2504 313.37 84.8961 310.913 86.1788" stroke="#263238" stroke-linecap="round" stroke-linejoin="round"/>
<path d="M307.011 87.8433C300.937 89.8864 294.339 89.7291 288.369 87.3991C282.4 85.069 277.439 80.7144 274.356 75.0969C271.272 69.4795 270.262 62.9568 271.501 56.6696C272.74 50.3825 276.151 44.7312 281.135 40.7041C286.12 36.6771 292.362 34.5306 298.769 34.6402C305.176 34.7498 311.341 37.1085 316.185 41.3037C321.029 45.4989 324.244 51.2635 325.267 57.5894C326.291 63.9152 325.058 70.3995 321.784 75.9082" stroke="#263238" stroke-linecap="round" stroke-linejoin="round"/>
<path d="M298.319 64.1165C299.513 64.1165 300.481 63.1485 300.481 61.9544C300.481 60.7603 299.513 59.7922 298.319 59.7922C297.125 59.7922 296.157 60.7603 296.157 61.9544C296.157 63.1485 297.125 64.1165 298.319 64.1165Z" fill="#263238" stroke="#263238" stroke-linecap="round" stroke-linejoin="round"/>
<path d="M301.428 74.0923L298.319 61.9545L316.463 49.5295" stroke="#263238" stroke-linecap="round" stroke-linejoin="round"/>
<path d="M105.829 137.957V181.229H73.5969" stroke="#263238" stroke-linecap="round" stroke-linejoin="round"/>
<path d="M47.1509 174.438V126.149H105.829V134.139" stroke="#263238" stroke-linecap="round" stroke-linejoin="round"/>
<path d="M68.9685 181.229H47.1509V177.707" stroke="#263238" stroke-linecap="round" stroke-linejoin="round"/>
<path d="M56.4502 139.706H50.7239V145.432H56.4502V139.706Z" stroke="#263238" stroke-linecap="round" stroke-linejoin="round"/>
<path d="M64.0857 139.706H58.3594V145.432H64.0857V139.706Z" stroke="#263238" stroke-linecap="round" stroke-linejoin="round"/>
<path d="M71.7217 139.706H65.9954V145.432H71.7217V139.706Z" stroke="#263238" stroke-linecap="round" stroke-linejoin="round"/>
<path d="M79.3572 139.706H73.6309V145.432H79.3572V139.706Z" stroke="#263238" stroke-linecap="round" stroke-linejoin="round"/>
<path d="M86.9931 139.706H81.2668V145.432H86.9931V139.706Z" stroke="#263238" stroke-linecap="round" stroke-linejoin="round"/>
<path d="M94.6289 139.706H88.9026V145.432H94.6289V139.706Z" stroke="#263238" stroke-linecap="round" stroke-linejoin="round"/>
<path d="M102.264 139.706H96.5381V145.432H102.264V139.706Z" stroke="#263238" stroke-linecap="round" stroke-linejoin="round"/>
<path d="M56.4502 148.743H50.7239V154.469H56.4502V148.743Z" stroke="#263238" stroke-linecap="round" stroke-linejoin="round"/>
<path d="M64.0857 148.743H58.3594V154.469H64.0857V148.743Z" stroke="#263238" stroke-linecap="round" stroke-linejoin="round"/>
<path d="M71.7217 148.743H65.9954V154.469H71.7217V148.743Z" stroke="#263238" stroke-linecap="round" stroke-linejoin="round"/>
<path d="M79.3572 148.743H73.6309V154.469H79.3572V148.743Z" stroke="#263238" stroke-linecap="round" stroke-linejoin="round"/>
<path d="M86.9931 148.743H81.2668V154.469H86.9931V148.743Z" stroke="#263238" stroke-linecap="round" stroke-linejoin="round"/>
<path d="M94.6289 148.743H88.9026V154.469H94.6289V148.743Z" stroke="#263238" stroke-linecap="round" stroke-linejoin="round"/>
<path d="M102.264 148.743H96.5381V154.469H102.264V148.743Z" stroke="#263238" stroke-linecap="round" stroke-linejoin="round"/>
<path d="M56.4502 157.781H50.7239V163.508H56.4502V157.781Z" stroke="#263238" stroke-linecap="round" stroke-linejoin="round"/>
<path d="M64.0857 157.781H58.3594V163.508H64.0857V157.781Z" stroke="#263238" stroke-linecap="round" stroke-linejoin="round"/>
<path d="M71.7217 157.781H65.9954V163.508H71.7217V157.781Z" stroke="#263238" stroke-linecap="round" stroke-linejoin="round"/>
<path d="M79.3572 157.781H73.6309V163.508H79.3572V157.781Z" stroke="#263238" stroke-linecap="round" stroke-linejoin="round"/>
<path d="M86.9931 157.781H81.2668V163.508H86.9931V157.781Z" stroke="#263238" stroke-linecap="round" stroke-linejoin="round"/>
<path d="M94.6289 157.781H88.9026V163.508H94.6289V157.781Z" stroke="#263238" stroke-linecap="round" stroke-linejoin="round"/>
<path d="M102.264 157.781H96.5381V163.508H102.264V157.781Z" stroke="#263238" stroke-linecap="round" stroke-linejoin="round"/>
<path d="M56.4502 166.819H50.7239V172.545H56.4502V166.819Z" stroke="#263238" stroke-linecap="round" stroke-linejoin="round"/>
<path d="M64.0857 166.819H58.3594V172.545H64.0857V166.819Z" stroke="#263238" stroke-linecap="round" stroke-linejoin="round"/>
<path d="M71.7217 166.819H65.9954V172.545H71.7217V166.819Z" stroke="#263238" stroke-linecap="round" stroke-linejoin="round"/>
<path d="M79.3572 166.819H73.6309V172.545H79.3572V166.819Z" stroke="#263238" stroke-linecap="round" stroke-linejoin="round"/>
<path d="M86.9931 166.819H81.2668V172.545H86.9931V166.819Z" stroke="#263238" stroke-linecap="round" stroke-linejoin="round"/>
<path d="M94.6289 166.819H88.9026V172.545H94.6289V166.819Z" stroke="#263238" stroke-linecap="round" stroke-linejoin="round"/>
<path d="M102.264 166.819H96.5381V172.545H102.264V166.819Z" stroke="#263238" stroke-linecap="round" stroke-linejoin="round"/>
<path d="M57.532 130.043H54.998V120.751H57.532V130.043ZM67.668 120.751H65.134V130.043H67.668V120.751ZM77.8039 120.751H75.2699V130.043H77.8039V120.751ZM87.9398 120.751H85.4058V130.043H87.9398V120.751ZM98.0757 120.751H95.5418V130.043H98.0757V120.751Z" fill="#263238" stroke="#263238" stroke-linecap="round" stroke-linejoin="round"/>
<path d="M76.4943 218.259C72.0669 218.257 67.7384 219.569 64.0563 222.027C60.3743 224.486 57.504 227.981 55.8086 232.071C54.1131 236.161 53.6687 240.662 54.5314 245.004C55.3941 249.347 57.5252 253.336 60.6553 256.467C63.7853 259.598 67.7737 261.731 72.1159 262.595C76.4581 263.46 80.9591 263.017 85.0497 261.323C89.1402 259.629 92.6365 256.76 95.0964 253.079C97.5563 249.398 98.8693 245.07 98.8693 240.643C98.8704 237.703 98.2925 234.793 97.1685 232.077C96.0446 229.362 94.3966 226.894 92.3188 224.816C90.241 222.737 87.774 221.088 85.0588 219.963C82.3436 218.838 79.4333 218.259 76.4943 218.259V218.259ZM76.4943 254.799C73.692 254.801 70.9522 253.971 68.6214 252.415C66.2907 250.86 64.4739 248.647 63.4007 246.059C62.3276 243.47 62.0463 240.621 62.5926 237.873C63.1389 235.124 64.4882 232.599 66.4697 230.618C68.4512 228.636 70.9759 227.287 73.7244 226.741C76.473 226.195 79.3218 226.476 81.9104 227.549C84.4991 228.622 86.7112 230.439 88.2671 232.77C89.8229 235.1 90.6524 237.84 90.6508 240.643C90.6485 244.396 89.1563 247.996 86.5019 250.65C83.8476 253.305 80.2481 254.797 76.4943 254.799V254.799Z" stroke="#263238" stroke-linecap="round" stroke-linejoin="round"/>
<path d="M76.9507 218.267V226.503C79.7028 226.588 82.3704 227.474 84.6258 229.054C86.8812 230.633 88.6264 232.837 89.6472 235.394C90.668 237.951 90.9199 240.751 90.372 243.449C89.8241 246.148 88.5002 248.627 86.5629 250.584L93.0246 255.72C95.9214 252.545 97.8428 248.604 98.559 244.366C99.2752 240.129 98.7559 235.775 97.0632 231.824C95.3705 227.874 92.5761 224.495 89.0139 222.091C85.4518 219.687 81.2726 218.359 76.976 218.267H76.9507Z" stroke="#263238" stroke-linecap="round" stroke-linejoin="round"/>
<path d="M68.2671 239.722H84.2565" stroke="#263238" stroke-linecap="round" stroke-linejoin="round"/>
<path d="M68.2671 243.835H84.2565" stroke="#263238" stroke-linecap="round" stroke-linejoin="round"/>
<path d="M279.509 140.179H323.051" stroke="#263238" stroke-linecap="round" stroke-linejoin="round"/>
<path d="M262.159 140.179H266.635" stroke="#263238" stroke-linecap="round" stroke-linejoin="round"/>
<path d="M294.011 147.088H323.051" stroke="#263238" stroke-linecap="round" stroke-linejoin="round"/>
<path d="M262.159 147.088H266.99" stroke="#263238" stroke-linecap="round" stroke-linejoin="round"/>
<path d="M307.973 153.997H323.051" stroke="#263238" stroke-linecap="round" stroke-linejoin="round"/>
<path d="M262.159 153.997H266.635" stroke="#263238" stroke-linecap="round" stroke-linejoin="round"/>
<path d="M320.356 160.898H323.051" stroke="#263238" stroke-linecap="round" stroke-linejoin="round"/>
<path d="M262.159 160.898H266.635" stroke="#263238" stroke-linecap="round" stroke-linejoin="round"/>
<path d="M320.356 168.939H323.051" stroke="#263238" stroke-linecap="round" stroke-linejoin="round"/>
<path d="M262.159 168.939H266.635" stroke="#263238" stroke-linecap="round" stroke-linejoin="round"/>
<path d="M320.356 176.98H323.051" stroke="#263238" stroke-linecap="round" stroke-linejoin="round"/>
<path d="M262.159 176.98H266.635" stroke="#263238" stroke-linecap="round" stroke-linejoin="round"/>
<path d="M277.878 135.398H267.785V177.715H277.878V135.398Z" stroke="#263238" stroke-linecap="round" stroke-linejoin="round"/>
<path d="M291.689 143.363H281.595V177.715H291.689V143.363Z" stroke="#263238" stroke-linecap="round" stroke-linejoin="round"/>
<path d="M305.507 150.804H295.414V177.715H305.507V150.804Z" stroke="#263238" stroke-linecap="round" stroke-linejoin="round"/>
<path d="M319.326 160.374H309.232V177.724H319.326V160.374Z" stroke="#263238" stroke-linecap="round" stroke-linejoin="round"/>
<path d="M91.309 40.4745C86.1785 36.639 79.7665 34.9298 73.4075 35.7026C67.0486 36.4754 61.2326 39.6707 57.1702 44.6235C53.1077 49.5762 51.1117 55.9049 51.5976 62.2921C52.0835 68.6794 55.0139 74.6333 59.7789 78.9144C64.5438 83.1956 70.7762 85.4744 77.1789 85.2763C83.5816 85.0783 89.6613 82.4188 94.1525 77.8513C98.6438 73.2838 101.201 67.1602 101.291 60.7551C101.381 54.35 98.9978 48.1568 94.637 43.4646" stroke="#263238" stroke-linecap="round" stroke-linejoin="round"/>
<path d="M64.8128 71.727C67.7332 74.723 71.6951 76.4794 75.8761 76.6316C80.0572 76.7838 84.1363 75.3202 87.2667 72.5445C90.3972 69.7688 92.3387 65.8943 92.6881 61.7251C93.0375 57.5559 91.768 53.4122 89.1432 50.1542C86.5183 46.8962 82.7398 44.7741 78.5917 44.2283C74.4436 43.6825 70.2447 44.7549 66.8664 47.223C63.4881 49.6912 61.19 53.3654 60.449 57.4831C59.708 61.6007 60.5811 65.8456 62.887 69.3366" stroke="#263238" stroke-linecap="round" stroke-linejoin="round"/>
<path d="M76.4945 68.8721C81.1921 68.8721 85.0002 65.0639 85.0002 60.3663C85.0002 55.6687 81.1921 51.8606 76.4945 51.8606C71.7969 51.8606 67.9888 55.6687 67.9888 60.3663C67.9888 65.0639 71.7969 68.8721 76.4945 68.8721Z" stroke="#263238" stroke-linecap="round" stroke-linejoin="round"/>
<path d="M292.871 229.518C295.6 229.907 296.85 232.052 296.85 235.042V235.659H294.51V234.882C294.51 232.897 293.708 231.672 291.908 231.672C290.109 231.672 289.332 232.897 289.332 234.882C289.332 239.95 296.883 239.95 296.883 246.293C296.883 249.309 295.6 251.462 292.871 251.851V253.54H290.81V251.851C288.015 251.462 286.764 249.317 286.764 246.293V244.908H289.113V246.454C289.113 248.472 289.957 249.629 291.748 249.629C293.539 249.629 294.375 248.472 294.375 246.454C294.375 241.436 286.857 241.386 286.857 235.042C286.857 231.959 288.116 229.974 290.81 229.518V227.719H292.871V229.518Z" fill="#263238"/>
<path d="M300.042 259.655C301.624 258.972 303.114 258.093 304.476 257.037" stroke="#263238" stroke-linecap="round" stroke-linejoin="round"/>
<path d="M284.517 221.249C279.619 223.079 275.594 226.693 273.249 231.366C270.903 236.039 270.41 241.425 271.868 246.446C273.326 251.467 276.628 255.752 281.112 258.441C285.596 261.13 290.93 262.026 296.047 260.948" stroke="#263238" stroke-linecap="round" stroke-linejoin="round"/>
<path d="M307.087 254.647C310.097 251.359 311.968 247.188 312.42 242.753C312.873 238.318 311.884 233.855 309.599 230.027C307.315 226.199 303.857 223.209 299.739 221.501C295.621 219.794 291.062 219.46 286.739 220.548" stroke="#263238" stroke-linecap="round" stroke-linejoin="round"/>
<path d="M303.363 253.09C310.245 246.715 310.656 235.968 304.281 229.085C297.906 222.203 287.159 221.792 280.276 228.167C273.394 234.543 272.983 245.29 279.358 252.172C285.734 259.054 296.481 259.465 303.363 253.09Z" stroke="#263238" stroke-linecap="round" stroke-linejoin="round"/>
<path d="M209.343 165.645L209.942 165.577C212.476 165.265 222.41 163.93 228.094 161.683C234.649 159.09 249.591 160.459 249.591 160.459L256.145 165.189L248.679 170.071C248.679 170.071 238.154 166.557 230.839 166.861C223.525 167.165 220.019 169.302 215.441 168.998C210.863 168.694 205.229 165.62 205.229 165.62L209.343 165.645Z" fill="#263238" stroke="#263238" stroke-linecap="round" stroke-linejoin="round"/>
<path d="M181.308 150.812V160.619H197.475V149.267L181.308 150.812Z" fill="white" stroke="#263238" stroke-linecap="round" stroke-linejoin="round"/>
<path d="M176.891 141.293C176.891 141.293 173.065 138.76 174.357 143.202C175.649 147.645 176.891 149.376 178.825 149.165C180.759 148.954 181.806 148.32 181.164 146.631C180.523 144.942 176.891 141.293 176.891 141.293Z" fill="white" stroke="#263238" stroke-linecap="round" stroke-linejoin="round"/>
<path d="M202.475 141.293C202.475 141.293 206.301 138.76 205.009 143.202C203.717 147.645 202.475 149.376 200.541 149.165C198.607 148.954 197.568 148.32 198.202 146.631C198.835 144.942 202.475 141.293 202.475 141.293Z" fill="white" stroke="#263238" stroke-linecap="round" stroke-linejoin="round"/>
<path d="M185.194 120.869C185.194 120.869 178.808 122.989 176.68 128.953C174.551 134.916 176.468 142.138 177.524 145.12C178.58 148.101 183.699 153.845 183.699 153.845H195.186C197.913 151.133 200.145 147.966 201.783 144.486C204.123 139.165 204.123 131.715 204.123 131.715C204.123 131.715 206.032 132.357 206.032 129.797C206.032 127.238 200.119 122.356 200.119 122.356C200.119 122.356 202.889 121.292 200.964 119.822C199.038 118.352 192.238 118.977 192.238 118.977C192.238 118.977 191.36 114.492 185.194 120.869Z" fill="#263238" stroke="#263238" stroke-linecap="round" stroke-linejoin="round"/>
<path d="M210.365 365.306L212.113 366.395C213.226 366.403 214.304 366.787 215.171 367.485C216.26 368.583 215.855 374.006 215.855 374.006C215.855 374.006 215.01 374.648 210.829 374.648C206.648 374.648 197.517 375.661 196.673 374.132C195.828 372.604 196.825 366.176 196.825 366.176L210.365 365.306Z" fill="#858585" stroke="#263238" stroke-linecap="round" stroke-linejoin="round"/>
<path d="M162.523 227.905C162.523 227.905 161.197 237.517 161.197 239.502C161.197 241.487 160.758 258.507 160.758 258.507C160.758 258.507 160.977 303.274 160.977 304.118C160.977 304.963 157.261 317.228 158.578 325.531C159.896 333.834 162.506 365.72 162.506 365.72C162.506 365.72 161.661 372.713 162.286 373.364C162.911 374.014 171.029 374.893 172.777 374.023C174.526 373.153 173.427 364.63 173.427 364.63C174.034 362.567 174.403 360.442 174.526 358.295V351.301C174.526 349.122 175.615 329.678 176.705 322.034C177.794 314.39 178.453 304.118 178.453 304.118L183.04 256.936L186.537 256.716C186.537 256.716 190.903 307.396 191.123 311.112C191.343 314.829 190.481 322.279 192.449 330.784C194.417 339.29 195.507 362.459 195.507 362.459C195.507 362.459 195.068 364.647 195.507 365.517C195.946 366.387 197.036 369.014 197.036 369.014C198.561 369.154 200.097 369.154 201.622 369.014C204.075 368.894 206.473 368.242 208.65 367.105C209.435 366.471 209.996 365.603 210.251 364.627C210.506 363.651 210.443 362.619 210.069 361.682C208.76 358.481 208.177 357.873 208.177 357.873C208.177 357.873 210.145 330.354 210.145 323.579C210.145 316.805 209.055 308.511 209.055 307.852C209.055 307.193 210.364 258.017 210.364 253.025C210.364 248.033 209.925 234.442 207.738 228.53C205.55 222.617 170.573 224.163 167.109 224.383C166.088 224.469 165.113 224.847 164.3 225.471C163.487 226.096 162.87 226.94 162.523 227.905Z" fill="#263238" stroke="#263238" stroke-linecap="round" stroke-linejoin="round"/>
<path d="M175.413 256.623L194.198 255.753" stroke="#757575" stroke-linecap="round" stroke-linejoin="round"/>
<path d="M186.334 160.188L174.509 163.026C174.509 163.026 157.464 171.329 153.756 173.509C150.047 175.688 135.401 205.183 136.06 206.712C136.719 208.241 139.557 210.209 142.395 210.648C145.233 211.087 159.685 194.735 159.685 194.735C159.685 194.735 163.832 215.269 163.832 216.139C163.832 217.009 161.433 227.499 162.523 229.248C163.613 230.996 205.559 229.248 205.559 229.248C205.559 229.248 208.616 229.467 209.055 226.629C209.495 223.791 208.211 215.488 208.211 215.488L213.017 190.368C213.017 190.368 222.198 204.288 224.259 206.526C227.832 210.42 232.275 208.79 234.64 205.876C236.71 203.342 234.86 198.443 234.209 196.914C233.559 195.385 221.936 169.395 218.448 168.272C214.96 167.148 200.313 161.937 200.313 161.937L186.334 160.188Z" fill="white" stroke="#263238" stroke-linecap="round" stroke-linejoin="round"/>
<path d="M174.543 163.026C174.543 163.026 188.978 162.731 191.377 162.731C193.776 162.731 202.586 162.638 202.586 162.638L200.364 157.908C196.578 156.98 192.69 156.537 188.792 156.59C184.617 156.582 180.475 157.323 176.562 158.778L174.543 163.026Z" fill="white" stroke="#263238" stroke-linecap="round" stroke-linejoin="round"/>
<path d="M155.242 183.18L159.685 194.701L152.041 187.057" stroke="#263238" stroke-linecap="round" stroke-linejoin="round"/>
<path d="M153.79 179.404L154.313 180.781" stroke="#263238" stroke-linecap="round" stroke-linejoin="round"/>
<path d="M178.369 214.204C177.641 214.817 176.873 215.381 176.072 215.893" stroke="#263238" stroke-linecap="round" stroke-linejoin="round"/>
<path d="M198.362 181.153C198.362 181.153 190.38 202.987 179.687 213.056" stroke="#263238" stroke-linecap="round" stroke-linejoin="round"/>
<path d="M218.009 177.875L212.983 190.334L221.067 181.592" stroke="#263238" stroke-linecap="round" stroke-linejoin="round"/>
<path d="M134.168 212.177C135.413 215.628 137.609 218.656 140.503 220.911C145.309 224.627 158.241 236.858 158.241 236.858C158.108 237.507 158.108 238.177 158.241 238.826C158.461 239.916 161.958 242.754 161.958 242.754V240.575L162.802 238.826L163.647 236.639C164.622 236.261 165.572 235.824 166.493 235.329C166.915 235.03 167.284 234.662 167.583 234.24C168.881 234.473 170.193 234.617 171.511 234.67C173.039 234.67 175.227 233.142 173.918 232.711C172.609 232.28 171.299 232.711 169.551 231.866C167.803 231.022 166.924 230.118 165.176 230.118H160.589L148.527 210.429L134.168 212.177Z" fill="white" stroke="#263238" stroke-linecap="round" stroke-linejoin="round"/>
<path d="M139.295 198.747C139.295 198.747 136.761 199.507 136.094 200.157C135.426 200.808 132.158 205.842 132.816 208.46C133.475 211.079 134.345 214.795 140.021 215.885C145.698 216.975 148.764 214.576 149.203 213.925C149.642 213.275 150.715 205.538 149.836 205.538C148.958 205.538 146.576 208.46 146.576 208.46C146.576 208.46 140.072 206.991 138.763 205.926C137.454 204.862 139.295 198.747 139.295 198.747Z" fill="white" stroke="#263238" stroke-linecap="round" stroke-linejoin="round"/>
<path d="M239.514 212.177C238.269 215.628 236.073 218.656 233.179 220.911C228.373 224.627 215.441 236.858 215.441 236.858C215.574 237.507 215.574 238.177 215.441 238.826C215.221 239.916 210.415 243.278 210.415 243.278V240.093L210.077 238.083L209.984 236.639C209.01 236.261 208.059 235.824 207.138 235.329C206.716 235.03 206.348 234.662 206.048 234.24C204.751 234.473 203.438 234.617 202.121 234.67C200.592 234.67 198.404 233.142 199.713 232.711C201.023 232.28 202.332 232.711 204.08 231.866C205.829 231.022 206.707 230.118 208.456 230.118H213.042L225.053 210.463L239.514 212.177Z" fill="white" stroke="#263238" stroke-linecap="round" stroke-linejoin="round"/>
<path d="M235.257 199.803C235.257 199.803 236.896 199.49 237.546 200.141C238.196 200.791 241.482 205.825 240.823 208.444C240.164 211.062 239.294 214.779 233.618 215.868C227.942 216.958 224.876 214.559 224.437 213.909C223.998 213.258 223.651 205.817 224.226 206.476C225.036 207.308 226 207.976 227.064 208.444C227.064 208.444 233.821 208.098 234.894 204.271C235.188 202.801 235.31 201.301 235.257 199.803Z" fill="white" stroke="#263238" stroke-linecap="round" stroke-linejoin="round"/>
<path d="M172.794 374.04C174.171 373.347 173.782 367.899 173.554 365.635C172.001 366.364 170.342 366.84 168.638 367.046C166.51 367.338 164.346 366.874 162.523 365.737C162.523 365.737 161.822 373.296 162.413 374.006C163.005 374.715 171.046 374.91 172.794 374.04Z" fill="#858585" stroke="#263238" stroke-linecap="round" stroke-linejoin="round"/>
<path d="M323.372 374.926C323.282 374.926 323.196 374.89 323.133 374.827C323.069 374.763 323.034 374.678 323.034 374.588V331.02C323.034 330.931 323.069 330.845 323.133 330.781C323.196 330.718 323.282 330.682 323.372 330.682C323.461 330.682 323.547 330.718 323.61 330.781C323.674 330.845 323.709 330.931 323.709 331.02V374.588C323.709 374.678 323.674 374.763 323.61 374.827C323.547 374.89 323.461 374.926 323.372 374.926Z" fill="#263238"/>
<path d="M323.034 370.66C321.622 368.696 319.84 367.026 317.788 365.744C314.841 364.106 309.933 364.106 309.933 364.106C309.933 364.106 312.552 373.608 323.034 370.66Z" fill="#263238"/>
<path d="M323.371 370.66C324.782 368.698 326.561 367.028 328.608 365.744C331.556 364.106 336.472 364.106 336.472 364.106C336.472 364.106 333.845 373.608 323.371 370.66Z" fill="#263238"/>
<path d="M323.034 358.869C321.622 356.904 319.84 355.235 317.788 353.953C314.841 352.314 309.933 352.314 309.933 352.314C309.933 352.314 312.552 361.817 323.034 358.869Z" fill="#263238"/>
<path d="M323.371 358.869C324.782 356.907 326.561 355.237 328.608 353.953C331.556 352.314 336.472 352.314 336.472 352.314C336.472 352.314 333.845 361.817 323.371 358.869Z" fill="#263238"/>
<path d="M323.034 347.069C321.622 345.106 319.841 343.439 317.788 342.161C314.841 340.523 309.933 340.523 309.933 340.523C309.933 340.523 312.552 350.017 323.034 347.069Z" fill="#263238"/>
<path d="M323.371 347.069C324.781 345.108 326.56 343.441 328.608 342.161C331.556 340.523 336.472 340.523 336.472 340.523C336.472 340.523 333.845 350.017 323.371 347.069Z" fill="#263238"/>
<path d="M323.034 335.277C321.622 333.313 319.84 331.643 317.788 330.361C314.841 328.723 309.933 328.723 309.933 328.723C309.933 328.723 312.552 338.225 323.034 335.277Z" fill="#263238"/>
<path d="M323.371 335.277C324.782 333.315 326.561 331.645 328.608 330.361C331.556 328.723 336.472 328.723 336.472 328.723C336.472 328.723 333.845 338.225 323.371 335.277Z" fill="#263238"/>
<path d="M323.372 331.02C323.372 331.02 320.745 327.49 320.618 324.119C320.491 320.749 322.696 316.365 322.696 316.365C322.696 316.365 330.72 322.996 323.372 331.02Z" fill="#263238"/>
<path d="M34.6579 374.926C34.5616 374.926 34.4692 374.888 34.4011 374.82C34.3329 374.752 34.2947 374.659 34.2947 374.563V327.465C34.2947 327.368 34.3329 327.276 34.4011 327.208C34.4692 327.14 34.5616 327.101 34.6579 327.101C34.7542 327.101 34.8466 327.14 34.9147 327.208C34.9828 327.276 35.0211 327.368 35.0211 327.465V374.563C35.0211 374.659 34.9828 374.752 34.9147 374.82C34.8466 374.888 34.7542 374.926 34.6579 374.926Z" fill="#263238"/>
<path d="M34.3034 370.314C32.7761 368.193 30.8512 366.388 28.6357 365.001C25.4513 363.227 20.1384 363.227 20.1384 363.227C20.1384 363.227 22.968 373.498 34.3034 370.314Z" fill="#263238"/>
<path d="M34.658 370.314C36.1852 368.193 38.1101 366.388 40.3256 365.001C43.51 363.227 48.8229 363.227 48.8229 363.227C48.8229 363.227 45.9849 373.498 34.658 370.314Z" fill="#263238"/>
<path d="M34.3034 357.568C32.7786 355.444 30.8532 353.64 28.6357 352.255C25.4513 350.481 20.1384 350.481 20.1384 350.481C20.1384 350.481 22.968 360.752 34.3034 357.568Z" fill="#263238"/>
<path d="M34.658 357.568C36.1828 355.444 38.1081 353.64 40.3256 352.255C43.51 350.481 48.8229 350.481 48.8229 350.481C48.8229 350.481 45.9849 360.752 34.658 357.568Z" fill="#263238"/>
<path d="M34.3034 344.814C32.7761 342.692 30.8512 340.888 28.6357 339.501C25.4513 337.735 20.1384 337.735 20.1384 337.735C20.1384 337.735 22.968 348.006 34.3034 344.814Z" fill="#263238"/>
<path d="M34.658 344.814C36.1852 342.692 38.1101 340.888 40.3256 339.501C43.51 337.735 48.8567 337.735 48.8567 337.735C48.8567 337.735 45.9849 348.006 34.658 344.814Z" fill="#263238"/>
<path d="M34.3034 332.068C32.7761 329.946 30.8512 328.142 28.6357 326.755C25.4513 324.989 20.1384 324.989 20.1384 324.989C20.1384 324.989 22.968 335.252 34.3034 332.068Z" fill="#263238"/>
<path d="M34.658 332.068C36.1852 329.946 38.1101 328.142 40.3256 326.755C43.51 324.989 48.8229 324.989 48.8229 324.989C48.8229 324.989 45.9849 335.252 34.658 332.068Z" fill="#263238"/>
<path d="M34.658 327.464C34.658 327.464 31.82 323.655 31.6764 320.006C31.5328 316.357 33.9316 311.627 33.9316 311.627C33.9316 311.627 42.6147 318.79 34.658 327.464Z" fill="#263238"/>
<path d="M65.0914 374.715V353.294C65.0914 353.198 65.0531 353.105 64.985 353.037C64.9169 352.969 64.8245 352.931 64.7282 352.931C64.6319 352.931 64.5395 352.969 64.4714 353.037C64.4033 353.105 64.365 353.198 64.365 353.294V374.715H65.0914Z" fill="#263238"/>
<path d="M64.3732 370.643C62.8434 368.531 60.9187 366.735 58.7055 365.356C55.5212 363.59 50.2083 363.59 50.2083 363.59C50.2083 363.59 53.0801 373.802 64.3732 370.643Z" fill="#263238"/>
<path d="M64.7278 370.643C66.2576 368.531 68.1823 366.735 70.3955 365.356C73.5798 363.59 78.8927 363.59 78.8927 363.59C78.8927 363.59 76.0631 373.802 64.7278 370.643Z" fill="#263238"/>
<path d="M64.3732 357.898C62.8459 355.776 60.921 353.972 58.7055 352.585C55.5212 350.811 50.2083 350.811 50.2083 350.811C50.2083 350.811 53.0801 361.082 64.3732 357.898Z" fill="#263238"/>
<path d="M64.7278 357.898C66.2551 355.776 68.18 353.972 70.3955 352.585C73.5798 350.811 78.8927 350.811 78.8927 350.811C78.8927 350.811 76.0631 361.082 64.7278 357.898Z" fill="#263238"/>
<path d="M64.728 353.294C64.728 353.294 61.89 349.485 61.7548 345.836C61.6197 342.187 64.0016 337.482 64.0016 337.482C64.0016 337.482 72.6847 344.619 64.728 353.294Z" fill="#263238"/>
<path d="M294.594 374.732V354.916C294.594 354.826 294.558 354.74 294.495 354.677C294.431 354.614 294.345 354.578 294.256 354.578C294.166 354.578 294.08 354.614 294.017 354.677C293.954 354.74 293.918 354.826 293.918 354.916V374.732H294.594Z" fill="#263238"/>
<path d="M293.927 370.964C292.516 369.002 290.737 367.333 288.69 366.049C285.742 364.41 280.826 364.41 280.826 364.41C280.826 364.41 283.445 373.912 293.927 370.964Z" fill="#263238"/>
<path d="M294.256 370.964C295.668 369 297.45 367.33 299.502 366.049C302.45 364.41 307.357 364.41 307.357 364.41C307.357 364.41 304.739 373.912 294.256 370.964Z" fill="#263238"/>
<path d="M293.927 359.173C292.516 357.21 290.737 355.541 288.69 354.257C285.742 352.618 280.826 352.618 280.826 352.618C280.826 352.618 283.445 362.121 293.927 359.173Z" fill="#263238"/>
<path d="M294.256 359.173C295.668 357.208 297.45 355.538 299.502 354.257C302.45 352.618 307.357 352.618 307.357 352.618C307.357 352.618 304.739 362.121 294.256 359.173Z" fill="#263238"/>
<path d="M294.256 354.916C294.256 354.916 291.638 351.385 291.503 348.015C291.367 344.645 293.589 340.261 293.589 340.261C293.589 340.261 301.613 346.883 294.256 354.916Z" fill="#263238"/>
<path d="M351.643 374.732V354.916C351.643 354.826 351.607 354.74 351.544 354.677C351.48 354.614 351.394 354.578 351.305 354.578C351.215 354.578 351.129 354.614 351.066 354.677C351.002 354.74 350.967 354.826 350.967 354.916V374.732H351.643Z" fill="#263238"/>
<path d="M350.975 370.964C349.564 369.002 347.786 367.333 345.738 366.049C342.79 364.41 337.875 364.41 337.875 364.41C337.875 364.41 340.493 373.912 350.975 370.964Z" fill="#263238"/>
<path d="M351.305 370.964C352.72 369.003 354.501 367.334 356.55 366.049C359.498 364.41 364.414 364.41 364.414 364.41C364.414 364.41 361.787 373.912 351.305 370.964Z" fill="#263238"/>
<path d="M350.975 359.173C349.564 357.21 347.786 355.541 345.738 354.257C342.79 352.618 337.875 352.618 337.875 352.618C337.875 352.618 340.493 362.121 350.975 359.173Z" fill="#263238"/>
<path d="M351.305 359.173C352.72 357.211 354.501 355.542 356.55 354.257C359.498 352.618 364.414 352.618 364.414 352.618C364.414 352.618 361.787 362.121 351.305 359.173Z" fill="#263238"/>
<path d="M351.304 354.916C351.304 354.916 348.686 351.385 348.551 348.015C348.416 344.645 350.637 340.261 350.637 340.261C350.637 340.261 358.661 346.883 351.304 354.916Z" fill="#263238"/>
<path d="M386.08 374.647H391.789" stroke="#263238" stroke-linecap="round" stroke-linejoin="round"/>
<path d="M84.2402 374.647H378.283" stroke="#263238" stroke-linecap="round" stroke-linejoin="round"/>
<path d="M18.4495 374.648H76.4439" stroke="#263238" stroke-linecap="round" stroke-linejoin="round"/>
</svg>
