<svg width="170" height="42" viewBox="0 0 170 42" fill="none" xmlns="http://www.w3.org/2000/svg">
<path d="M92.5353 19.1338C93.3404 19.1338 93.9381 18.4684 93.9381 17.6968C93.9381 16.9249 93.3404 16.2593 92.5353 16.2593C91.73 16.2593 91.1326 16.9249 91.1326 17.6968C91.1326 18.4684 91.73 19.1338 92.5353 19.1338Z" fill="#128C60"/>
<path d="M93.7685 23.687C93.9575 23.3257 94.0812 22.9338 94.0812 22.543C94.0812 21.6779 93.5098 20.8129 92.5875 20.8129C91.8474 20.8129 91.211 21.3852 91.211 22.1702C91.211 22.7687 91.6129 23.4601 92.2358 23.5142C90.6624 27.2931 83.5674 29.1985 83.5674 29.1985C89.82 27.6972 92.3603 25.4966 93.2916 24.3854C93.3909 24.2707 93.4846 24.1493 93.5713 24.0205C93.7173 23.8092 93.7685 23.687 93.7685 23.687Z" fill="#F7931E"/>
<path d="M12.1701 3.005C12.1701 2.10763 12.4473 1.38288 13.0019 0.829453C13.5558 0.276539 14.2714 -4.57764e-05 15.1475 -4.57764e-05C16.0229 -4.57764e-05 16.73 0.276539 17.2701 0.829453C17.81 1.38288 18.0805 2.10763 18.0805 3.005V22.3365C18.0805 23.3534 18.4229 24.2134 19.1091 24.9156C19.7944 25.6186 20.6338 25.9697 21.6266 25.9697C22.6182 25.9697 23.4573 25.6186 24.1434 24.9156C24.829 24.2134 25.1727 23.3534 25.1727 22.3365V3.005C25.1727 2.10763 25.4419 1.38288 25.9823 0.829453C26.522 0.276539 27.2296 -4.57764e-05 28.1057 -4.57764e-05C28.981 -4.57764e-05 29.6954 0.276539 30.2505 0.829453C30.8044 1.38288 31.0824 2.10763 31.0824 3.005V22.3365C31.0824 25.058 30.1701 27.3532 28.3461 29.2219C26.522 31.0909 24.2819 32.0251 21.6266 32.0251C19.3205 32.0251 17.2924 31.2627 15.5409 29.7374C13.79 31.2627 11.7614 32.0251 9.4558 32.0251C6.77053 32.0251 4.52343 31.0986 2.71426 29.2442C0.904336 27.3906 0 25.088 0 22.3365V3.005C0 2.10763 0.2772 1.38288 0.83185 0.829453C1.38575 0.276539 2.10137 -4.57764e-05 2.97671 -4.57764e-05C3.85281 -4.57764e-05 4.55993 0.276539 5.10008 0.829453C5.63998 1.38288 5.90993 2.10763 5.90993 3.005V22.3365C5.90993 23.3534 6.25287 24.2134 6.939 24.9156C7.62438 25.6186 8.46347 25.9697 9.4558 25.9697C10.5648 25.9697 11.4699 25.5367 12.1701 24.669V3.005Z" fill="white"/>
<path d="M52.3137 17.2072L46.7099 22.8322C46.0675 23.4307 45.3814 23.7293 44.6523 23.7293C43.8352 23.7293 43.1271 23.4186 42.5294 22.7978C41.9308 22.1768 41.6318 21.4515 41.6318 20.6233C41.6318 19.8837 41.9563 19.1887 42.6062 18.5374L45.7421 15.3367C45.3634 15.2504 44.9835 15.2071 44.6048 15.2071C43.1463 15.2071 41.9068 15.7326 40.8862 16.7839C39.8656 17.8352 39.3555 19.1108 39.3555 20.6118C39.3555 22.113 39.8656 23.3971 40.8875 24.463C41.9085 25.5289 43.1491 26.0615 44.6085 26.0615H48.5051C49.3804 26.0615 50.0876 26.3384 50.628 26.8913C51.1679 27.4452 51.4383 28.17 51.4383 29.0668C51.4383 29.9639 51.1679 30.6969 50.628 31.2649C50.0876 31.8322 49.3804 32.1169 48.5051 32.1169H44.6085C41.4566 32.1169 38.8083 31.0091 36.6627 28.7913C34.5179 26.574 33.4456 23.8478 33.4456 20.6118C33.4456 17.376 34.5179 14.657 36.6627 12.4549C38.8083 10.2532 41.4566 9.15197 44.6085 9.15197C47.7895 9.15197 50.489 10.3221 52.7076 12.6615C53.2912 13.2925 53.5832 13.982 53.5832 14.7321C53.5832 15.7221 53.1595 16.547 52.3137 17.2072Z" fill="white"/>
<path d="M67.1105 9.23965C70.2624 9.23965 72.9177 10.3442 75.0778 12.5528C77.2377 14.7611 78.3177 17.4767 78.3177 20.6997C78.3177 23.8935 77.2297 26.5946 75.0566 28.8031C72.8815 31.0115 70.2329 32.115 67.1105 32.115C63.9873 32.115 61.3463 31.0079 59.1867 28.7916C57.0263 26.5756 55.9473 23.8656 55.9473 20.6613V3.05439C55.9473 2.18571 56.224 1.46736 56.7791 0.898567C57.333 0.329521 58.0334 0.0447426 58.8805 0.0447426C59.7558 0.0447426 60.4705 0.322605 61.0254 0.87603C61.5795 1.43022 61.8572 2.15652 61.8572 3.0549V20.6685C61.8572 22.1661 62.3676 23.4384 63.3892 24.4871C64.4105 25.5356 65.651 26.0598 67.1105 26.0598C68.5692 26.0598 69.8173 25.5392 70.8533 24.4971C71.8891 23.4548 72.4073 22.1889 72.4073 20.6997C72.4073 19.2113 71.8891 17.9377 70.8533 16.8811C69.8173 15.8242 68.5692 15.2953 67.1105 15.2953C66.2352 15.2953 65.5268 15.0187 64.9871 14.4653C64.4467 13.9121 64.1775 13.1869 64.1775 12.29C64.1775 11.3927 64.4467 10.6605 64.9871 10.0919C65.5268 9.52443 66.2352 9.23965 67.1105 9.23965Z" fill="white"/>
<path d="M93.7685 23.687C93.9575 23.3257 94.0812 22.9338 94.0812 22.543C94.0812 21.6779 93.5098 20.8129 92.5875 20.8129C91.8474 20.8129 91.211 21.3852 91.211 22.1702C91.211 22.7687 91.6129 23.4601 92.2358 23.5142C90.6624 27.2931 83.5674 29.1985 83.5674 29.1985C89.82 27.6972 92.3603 25.4966 93.2916 24.3854C93.3909 24.2707 93.4846 24.1493 93.5713 24.0205C93.7173 23.8092 93.7685 23.687 93.7685 23.687Z" fill="#128C60"/>
<path d="M100.489 12.4531C98.3286 10.251 95.6733 9.15001 92.5214 9.15001C89.369 9.15001 86.7204 10.251 84.5753 12.4531C82.4305 14.6553 81.3577 17.3743 81.3577 20.6101C81.3577 23.5375 82.2395 26.0463 83.9957 28.1401C85.1297 27.778 86.8052 27.1231 88.3052 26.2281C88.0877 26.0506 87.8742 25.8616 87.6683 25.6488C86.334 24.2695 85.7124 22.6683 85.7124 20.6101C85.7124 18.558 86.3305 16.9674 87.6578 15.6049C88.9823 14.2451 90.5278 13.6115 92.5214 13.6115C94.5203 13.6115 96.076 14.2486 97.4168 15.6154C98.752 16.9768 99.3737 18.5639 99.3737 20.6101C99.3737 22.6622 98.7485 24.2602 97.407 25.6375C96.067 27.013 94.5148 27.6535 92.5214 27.6535C91.8988 27.6535 91.3211 27.5887 90.779 27.4607C89.4787 28.1962 87.7505 28.9535 85.4632 29.617C87.4381 31.2817 89.7901 32.115 92.5214 32.115C95.6733 32.115 98.3286 31.0069 100.489 28.7896C102.648 26.5723 103.728 23.8459 103.728 20.6101C103.728 17.3743 102.648 14.6553 100.489 12.4531Z" fill="#128C60"/>
<path d="M166.322 41.8926H129.112C126.426 41.8926 124.179 40.964 122.369 39.1078C120.56 37.2495 119.655 34.9439 119.655 32.188V30.0765V18.7993C119.655 17.8113 119.31 16.9646 118.62 16.2611C117.93 15.5574 117.1 15.205 116.131 15.205C115.133 15.205 114.289 15.5497 113.599 16.2393C112.908 16.9288 112.563 17.7839 112.563 18.8029V29.0119C112.563 29.9119 112.286 30.6387 111.731 31.1931C111.177 31.7473 110.462 32.0252 109.587 32.0252C108.711 32.0252 108.003 31.7473 107.463 31.1939C106.923 30.6397 106.653 29.9129 106.653 29.014V18.8118C106.653 16.0854 107.565 13.7941 109.39 11.9359C111.213 10.0787 113.453 9.14956 116.109 9.14956C118.765 9.14956 121.005 10.0782 122.829 11.9354C124.653 13.7926 125.566 16.0836 125.566 18.8093V32.1983C125.566 33.2165 125.908 34.0775 126.594 34.782C127.28 35.4848 128.119 35.8372 129.112 35.8372H166.322C167.198 35.8372 167.913 36.1214 168.468 36.6897C169.022 37.2572 169.3 37.9907 169.3 38.8875C169.3 39.7846 169.022 40.5094 168.468 41.0628C167.913 41.616 167.198 41.8926 166.322 41.8926Z" fill="#128C60"/>
<path d="M146.798 17.2072L141.194 22.8322C140.552 23.4307 139.866 23.7293 139.136 23.7293C138.319 23.7293 137.611 23.4186 137.014 22.7978C136.415 22.1768 136.116 21.4515 136.116 20.6233C136.116 19.8837 136.44 19.1887 137.09 18.5374L140.226 15.3367C139.848 15.2504 139.468 15.2071 139.089 15.2071C137.63 15.2071 136.391 15.7326 135.37 16.7839C134.35 17.8352 133.84 19.1108 133.84 20.6118C133.84 22.113 134.35 23.3971 135.372 24.463C136.393 25.5289 137.633 26.0615 139.093 26.0615H142.989C143.865 26.0615 144.572 26.3384 145.112 26.8913C145.652 27.4452 145.922 28.17 145.922 29.0668C145.922 29.9639 145.652 30.6969 145.112 31.2649C144.572 31.8322 143.865 32.1169 142.989 32.1169H139.093C135.941 32.1169 133.292 31.0091 131.147 28.7913C129.002 26.574 127.93 23.8478 127.93 20.6118C127.93 17.376 129.002 14.657 131.147 12.4549C133.292 10.2532 135.941 9.15197 139.093 9.15197C142.274 9.15197 144.973 10.3221 147.192 12.6615C147.775 13.2925 148.067 13.982 148.067 14.7321C148.067 15.7221 147.644 16.547 146.798 17.2072Z" fill="#128C60"/>
<path d="M169.299 29.0169C169.299 29.9158 169.028 30.6426 168.489 31.1968C167.948 31.7502 167.241 32.0281 166.366 32.0281C165.518 32.0281 164.812 31.7433 164.242 31.1758C163.673 30.6078 163.389 29.8904 163.389 29.0225V27.8565C163.389 26.8698 163.045 26.0175 162.36 25.2996C161.674 24.5823 160.849 24.2233 159.887 24.2233C158.894 24.2233 158.055 24.5751 157.369 25.2774C156.683 25.9806 156.341 26.8401 156.341 27.8565V29.0225C156.341 29.9196 156.063 30.6449 155.509 31.1981C154.954 31.7512 154.239 32.0281 153.364 32.0281C152.488 32.0281 151.78 31.7502 151.24 31.1968C150.7 30.6426 150.431 29.9158 150.431 29.0169V27.8483C150.431 24.9424 151.495 22.5154 153.626 20.568C151.495 18.6503 150.431 16.2387 150.431 13.3325V12.1631C150.431 11.2648 150.7 10.539 151.24 9.98452C151.78 9.43007 152.488 9.15272 153.364 9.15272C155.348 9.15272 156.341 10.1605 156.341 12.1749V13.3476C156.341 14.3712 156.683 15.2281 157.369 15.9196C158.055 16.6115 158.894 16.957 159.887 16.957C160.849 16.957 161.674 16.6039 162.36 15.8973C163.045 15.191 163.389 14.3407 163.389 13.3476V12.1749C163.389 11.2732 163.666 10.5436 164.221 9.98734C164.775 9.43084 165.49 9.15272 166.366 9.15272C167.241 9.15272 167.948 9.43007 168.489 9.98452C169.028 10.539 169.299 11.2648 169.299 12.1631V13.3325C169.299 16.2387 168.233 18.6503 166.103 20.568C168.233 22.5154 169.299 24.9424 169.299 27.8483V29.0169Z" fill="white"/>
</svg>
