<svg width="74" height="119" viewBox="0 0 74 119" fill="none" xmlns="http://www.w3.org/2000/svg">
<path d="M65.1346 0H8.86522C6.56594 0 4.36084 0.88598 2.73501 2.46304C1.10918 4.04009 0.195801 6.17904 0.195801 8.40933V119H73.804V8.40933C73.804 6.17904 72.8907 4.04009 71.2648 2.46304C69.639 0.88598 67.4339 0 65.1346 0ZM65.6254 111.067H53.3573V99.1667H20.6425V111.067H8.37449V8.40933C8.37449 8.34682 8.38719 8.28493 8.41185 8.22718C8.43651 8.16943 8.47266 8.11695 8.51822 8.07275C8.56379 8.02855 8.61789 7.99349 8.67743 7.96957C8.73696 7.94564 8.80077 7.93333 8.86522 7.93333H65.1346C65.1991 7.93333 65.2629 7.94564 65.3224 7.96957C65.382 7.99349 65.4361 8.02855 65.4816 8.07275C65.5272 8.11695 65.5633 8.16943 65.588 8.22718C65.6127 8.28493 65.6254 8.34682 65.6254 8.40933V111.067Z" fill="#3AD09A"/>
<path d="M16.5532 19.8328H24.7319V27.7661H16.5532V19.8328Z" fill="#3AD09A"/>
<path d="M32.9106 19.8328H41.0893V27.7661H32.9106V19.8328Z" fill="#3AD09A"/>
<path d="M49.2681 19.8328H57.4468V27.7661H49.2681V19.8328Z" fill="#3AD09A"/>
<path d="M16.5532 39.6672H24.7319V47.6006H16.5532V39.6672Z" fill="#3AD09A"/>
<path d="M32.9106 39.6672H41.0893V47.6006H32.9106V39.6672Z" fill="#3AD09A"/>
<path d="M49.2681 39.6672H57.4468V47.6006H49.2681V39.6672Z" fill="#3AD09A"/>
<path d="M16.5532 59.5H24.7319V67.4333H16.5532V59.5Z" fill="#3AD09A"/>
<path d="M32.9106 59.5H41.0893V67.4333H32.9106V59.5Z" fill="#3AD09A"/>
<path d="M49.2681 59.5H57.4468V67.4333H49.2681V59.5Z" fill="#3AD09A"/>
<path d="M16.5532 79.3328H24.7319V87.2661H16.5532V79.3328Z" fill="#3AD09A"/>
<path d="M32.9106 79.3328H41.0893V87.2661H32.9106V79.3328Z" fill="#3AD09A"/>
<path d="M49.2681 79.3328H57.4468V87.2661H49.2681V79.3328Z" fill="#3AD09A"/>
</svg>
