<svg width="26" height="26" viewBox="0 0 26 26" fill="none" xmlns="http://www.w3.org/2000/svg">
<circle cx="13" cy="13" r="12" stroke="#3AD09A"/>
<path d="M10.052 16.972C11.076 16.1187 11.892 15.4093 12.5 14.844C13.108 14.268 13.6147 13.6707 14.02 13.052C14.4253 12.4333 14.628 11.8253 14.628 11.228C14.628 10.684 14.5 10.2573 14.244 9.948C13.988 9.63867 13.5933 9.484 13.06 9.484C12.5267 9.484 12.116 9.66533 11.828 10.028C11.54 10.38 11.3907 10.8653 11.38 11.484H9.204C9.24667 10.204 9.62533 9.23333 10.34 8.572C11.0653 7.91067 11.9827 7.58 13.092 7.58C14.308 7.58 15.2413 7.90533 15.892 8.556C16.5427 9.196 16.868 10.044 16.868 11.1C16.868 11.932 16.644 12.7267 16.196 13.484C15.748 14.2413 15.236 14.9027 14.66 15.468C14.084 16.0227 13.332 16.6947 12.404 17.484H17.124V19.34H9.22V17.676L10.052 16.972Z" fill="#3AD09A"/>
</svg>
