<svg width="160" height="150" viewBox="0 0 160 150" fill="none" xmlns="http://www.w3.org/2000/svg">
<path d="M59.953 83.747L40.386 45.9973C40.054 45.3939 39.5428 44.887 38.9103 44.5341C38.2778 44.1811 37.5492 43.9961 36.807 44.0001C36.0648 44.004 35.3386 44.1967 34.7107 44.5564C34.0828 44.9161 33.5782 45.4283 33.254 46.0352L13.7029 83.747H9V87.3603H64.6559V83.747H59.953ZM36.8081 47.5763L46.6612 66.5839L42.7911 68.929L36.828 65.3157L30.8648 68.929L26.9788 66.5749L36.8081 47.5763ZM25.2694 69.8811L30.8648 73.2721L36.828 69.6588L42.7911 73.2721L48.3765 69.8883L55.5562 83.747H18.0938L25.2694 69.8811Z" fill="#3AD09A"/>
<path d="M145.636 83.747L128.713 45.9973C128.426 45.3939 127.984 44.887 127.437 44.5341C126.89 44.1811 126.26 43.9961 125.618 44.0001C124.976 44.004 124.348 44.1967 123.805 44.5564C123.262 44.9161 122.826 45.4283 122.545 46.0352L105.636 83.747H101.569V87.3603H149.704V83.747H145.636ZM125.619 47.5763L134.141 66.5839L130.794 68.929L125.636 65.3157L120.479 68.929L117.118 66.5749L125.619 47.5763ZM115.64 69.8811L120.479 73.2721L125.636 69.6588L130.794 73.2721L135.624 69.8883L141.834 83.747H109.434L115.64 69.8811Z" fill="#3AD09A"/>
<path d="M72 65L94 65" stroke="#3AD09A" stroke-width="2" stroke-linecap="round" stroke-linejoin="round"/>
<path d="M72 65L68 134" stroke="#3AD09A" stroke-width="2" stroke-linecap="round" stroke-linejoin="round"/>
<path d="M94 65L99 134" stroke="#3AD09A" stroke-width="2" stroke-linecap="round" stroke-linejoin="round"/>
<path d="M83 121V134" stroke="#3AD09A" stroke-width="2" stroke-linecap="round" stroke-linejoin="round"/>
<path d="M83 92V105" stroke="#3AD09A" stroke-width="2" stroke-linecap="round" stroke-linejoin="round"/>
<path d="M129 105L142 105" stroke="#3AD09A" stroke-linecap="round" stroke-linejoin="round"/>
<path d="M111 114H142" stroke="#3AD09A" stroke-linecap="round" stroke-linejoin="round"/>
<path d="M25 105L38 105" stroke="#3AD09A" stroke-linecap="round" stroke-linejoin="round"/>
<path d="M25 114H56" stroke="#3AD09A" stroke-linecap="round" stroke-linejoin="round"/>
<path d="M73.0621 34.4062C71.2592 35.6629 68.474 37.5574 68.8617 39.07C69.2494 40.5825 70.7791 41.9753 73.1633 42.9867C75.5475 43.9981 78.6221 44.5585 81.8095 44.5625H117.76C120.068 44.5617 122.349 44.3274 124.453 43.8748C126.558 43.4222 128.438 42.7617 129.97 41.9367C131.502 41.1117 132.651 40.1409 133.341 39.0883C134.032 38.0357 134.248 36.9251 133.977 35.8296C133.705 34.7341 132.951 33.6785 131.764 32.7324C130.577 31.7863 128.985 30.971 127.092 30.3403C125.199 29.7096 123.048 29.2777 120.78 29.0731C118.513 28.8684 116.18 28.8957 113.936 29.1531L109.59 29.7187" stroke="#3AD09A" stroke-width="2" stroke-linecap="round" stroke-linejoin="round"/>
<path d="M90.8059 29.1039C90.2184 26.9891 88.7681 25.1566 86.7491 23.9777C84.7301 22.7988 82.2934 22.3618 79.9331 22.7553C77.5727 23.1487 75.4653 24.3432 74.0379 26.0966C72.6106 27.8499 71.9702 30.031 72.2465 32.1976C72.2465 32.1976 72.5095 33.5757 73.0476 34.357" stroke="#3AD09A" stroke-width="2" stroke-linecap="round" stroke-linejoin="round"/>
<path d="M112.601 29.6447C108.111 29.5707 109.012 28.2595 108.009 26.2779C107.007 24.2964 105.212 22.7355 102.99 21.9118C100.768 21.088 98.2848 21.0631 96.0433 21.8419C93.8017 22.6207 91.9699 24.1451 90.9191 26.106C90.9191 26.106 90.4557 26.4533 90.4462 27.375" stroke="#3AD09A" stroke-width="2" stroke-linecap="round" stroke-linejoin="round"/>
<path d="M68 23.625V22.625M68 42.625V41.625M58 32.625H59M60 40.625L61.5 39.125M60 24.625L61.5 26.125" stroke="#3AD09A" stroke-width="2" stroke-linecap="round"/>
<path d="M68 36.625C70.2091 36.625 72 34.8341 72 32.625C72 30.4159 70.2091 28.625 68 28.625C65.7909 28.625 64 30.4159 64 32.625C64 34.8341 65.7909 36.625 68 36.625Z" stroke="#3AD09A" stroke-width="2" stroke-linecap="round"/>
<rect x="56.5" y="21.125" width="23" height="23" stroke="#3AD09A"/>
</svg>
